<?xml version="1.0" encoding="UTF-8" standalone="no"?><!DOCTYPE svg PUBLIC "-//W3C//DTD SVG 1.1//EN" "http://www.w3.org/Graphics/SVG/1.1/DTD/svg11.dtd"><svg width="100%" height="100%" viewBox="0 0 1077 658" version="1.1" xmlns="http://www.w3.org/2000/svg" xmlns:xlink="http://www.w3.org/1999/xlink" xml:space="preserve" xmlns:serif="http://www.serif.com/" style="fill-rule:evenodd;clip-rule:evenodd;stroke-linejoin:round;stroke-miterlimit:2;"><g><path d="M197.726,312.604c-9.48,0 -17.987,-1.701 -25.521,-5.104c-7.535,-3.402 -13.611,-8.993 -18.229,-16.528c-4.375,-7.534 -6.563,-17.743 -6.563,-30.381l0,-75.348c0,-12.396 2.188,-22.604 6.563,-30.139c4.618,-7.534 10.451,-13.125 17.986,-16.527c7.534,-3.403 16.041,-5.105 25.521,-5.105c10.451,0 19.444,1.702 26.979,5.348c7.534,3.645 13.611,8.75 17.743,15.069c4.132,6.319 6.319,13.611 6.319,21.632c0,3.16 -0.729,5.104 -2.187,6.563c-1.459,1.215 -3.403,1.701 -5.834,1.701c-2.187,-0 -3.888,-0.486 -5.59,-1.458c-1.458,-0.973 -2.187,-2.431 -2.43,-4.618c-0.73,-6.32 -2.674,-11.667 -5.348,-16.042c-2.673,-4.375 -6.562,-7.778 -11.423,-9.965c-4.861,-2.188 -10.938,-3.403 -17.986,-3.403c-10.938,-0 -19.202,2.916 -25.278,8.993c-6.077,6.076 -8.993,15.312 -8.993,27.951l-0,75.348c-0,12.638 2.916,22.118 8.993,28.194c6.076,6.076 14.34,8.993 25.278,8.993c10.937,0 19.444,-2.917 25.52,-8.993c6.077,-6.076 9.237,-15.556 9.237,-28.194l-0,-28.924l-32.57,-0c-1.944,-0 -3.403,-0.729 -4.375,-2.188c-1.215,-1.458 -1.701,-3.159 -1.701,-4.861c-0,-1.701 0.486,-3.159 1.701,-4.618c0.972,-1.458 2.431,-2.187 4.375,-2.187l42.535,-0c1.944,-0 3.403,0.729 4.618,1.944c0.972,1.215 1.458,2.674 1.458,4.375l0,36.459c0,12.638 -2.187,22.847 -6.805,30.381c-4.618,7.535 -10.695,13.126 -18.229,16.528c-7.535,3.403 -16.285,5.104 -25.764,5.104Z" style="fill:#fff;fill-rule:nonzero;"/></g><g><path d="M322.899,312.848c-10.208,-0 -19.201,-1.945 -27.222,-5.834c-7.778,-3.889 -13.854,-9.236 -18.472,-16.285c-4.375,-6.805 -6.563,-14.826 -6.563,-24.062l0,-27.222c0,-8.021 2.188,-15.556 6.32,-22.361c4.132,-6.806 9.722,-12.153 16.771,-16.285c7.048,-4.132 14.826,-6.077 23.333,-6.077c8.021,0 15.556,1.945 22.361,5.834c7.049,3.646 12.639,8.993 16.771,15.555c4.132,6.563 6.319,14.341 6.319,22.848c0,6.319 -0.972,10.937 -3.159,13.611c-2.188,2.673 -4.861,4.132 -8.021,4.861c-3.16,0.729 -6.32,0.972 -9.965,0.972l-54.931,0l-0,8.993c-0,9.722 3.403,17.5 10.451,23.09c7.049,5.591 15.799,8.507 26.493,8.507c6.563,0 11.424,-0.729 15.07,-2.43c3.646,-1.702 6.319,-3.16 8.264,-4.861c2.187,-1.702 4.132,-2.431 5.833,-2.431c1.215,0 2.431,0.486 3.403,1.458c1.215,0.73 1.944,1.702 2.43,2.917c0.73,1.215 0.973,2.188 0.973,3.16c-0,1.701 -1.459,3.889 -4.375,6.562c-2.917,2.674 -7.049,4.861 -12.639,6.806c-5.59,1.701 -11.91,2.674 -19.445,2.674Zm-36.458,-66.112l48.611,0c4.861,0 8.021,-0.486 9.722,-1.458c1.702,-1.215 2.431,-3.403 2.431,-6.806c-0,-5.104 -1.215,-10.208 -3.889,-14.826c-2.431,-4.618 -6.076,-8.507 -10.694,-11.424c-4.619,-2.916 -9.723,-4.375 -15.799,-4.375c-5.59,0 -10.695,1.459 -15.313,4.132c-4.618,2.674 -8.263,6.077 -10.937,10.695c-2.674,4.375 -4.132,9.236 -4.132,14.826l-0,9.236Z" style="fill:#fff;fill-rule:nonzero;"/></g><g><path d="M390.712,311.146c-2.188,0 -3.889,-0.729 -5.347,-1.944c-1.702,-1.216 -2.431,-2.674 -2.431,-4.375l0,-102.813c0,-1.701 0.729,-3.16 2.431,-4.375c1.458,-0.972 3.159,-1.458 5.347,-1.458c2.187,-0 3.889,0.486 5.347,1.701c1.458,0.972 2.188,2.431 2.188,4.132l-0,11.181c2.673,-4.618 6.805,-8.993 12.395,-12.639c5.348,-3.889 11.91,-5.834 19.931,-5.834c8.021,0 15.069,2.188 21.146,6.806c6.076,4.618 10.451,10.451 13.368,17.5c4.132,-8.264 9.722,-14.34 16.528,-18.472c6.562,-3.889 13.368,-5.834 20.416,-5.834c7.049,0 13.612,1.702 19.931,5.348c6.076,3.645 11.181,8.75 15.069,15.555c3.889,6.563 5.834,14.827 5.834,24.549l-0,64.653c-0,1.701 -0.729,3.159 -2.188,4.375c-1.701,1.215 -3.646,1.944 -5.833,1.944c-2.188,0 -3.889,-0.729 -5.347,-1.944c-1.702,-1.216 -2.431,-2.674 -2.431,-4.375l0,-64.653c0,-6.806 -1.458,-12.396 -4.132,-17.014c-2.673,-4.618 -6.319,-8.021 -10.451,-10.208c-4.132,-2.431 -8.507,-3.646 -13.125,-3.646c-4.618,-0 -9.236,1.215 -13.368,3.646c-4.375,2.43 -8.021,5.833 -10.695,10.451c-2.916,4.375 -4.375,9.722 -4.375,15.799l0,65.868c0,2.187 -0.729,3.646 -2.43,4.618c-1.702,0.972 -3.646,1.458 -5.591,1.458c-1.701,0 -3.402,-0.486 -5.104,-1.458c-1.701,-0.972 -2.673,-2.431 -2.673,-4.618l-0,-65.625c-0,-5.834 -1.216,-10.938 -3.646,-15.556c-2.674,-4.618 -6.077,-8.021 -10.209,-10.694c-4.131,-2.674 -8.75,-3.889 -13.854,-3.889c-4.618,-0 -9.236,1.215 -13.611,3.646c-4.375,2.43 -8.021,5.833 -10.694,10.451c-2.917,4.618 -4.375,10.208 -4.375,16.771l-0,64.653c-0,1.701 -0.729,3.159 -2.188,4.375c-1.701,1.215 -3.646,1.944 -5.833,1.944Z" style="fill:#fff;fill-rule:nonzero;"/></g><g><path d="M669.983,312.604c-8.993,0 -17.5,-1.701 -25.278,-5.104c-7.535,-3.402 -13.611,-8.993 -18.229,-16.528c-4.618,-7.534 -6.806,-17.743 -6.806,-30.381l0,-75.348c0,-12.396 2.188,-22.604 6.806,-30.139c4.618,-7.534 10.937,-13.125 18.715,-16.527c7.535,-3.403 16.042,-5.105 25.278,-5.105c10.695,0 19.688,1.945 27.222,5.591c7.535,3.645 13.125,8.75 17.257,14.826c3.889,6.076 5.834,12.882 5.834,20.174c-0,3.889 -0.73,6.562 -2.188,7.777c-1.215,1.216 -3.16,1.945 -5.833,1.945c-2.917,-0 -5.104,-0.486 -6.32,-1.701c-1.215,-1.459 -1.701,-2.674 -1.701,-4.375c-0.243,-2.674 -0.729,-5.591 -1.458,-8.994c-0.973,-3.402 -2.674,-6.562 -4.862,-9.722c-2.43,-3.16 -5.833,-5.59 -10.208,-7.535c-4.618,-2.187 -10.451,-3.159 -17.5,-3.159c-11.424,-0 -19.93,2.916 -26.007,8.993c-6.076,6.076 -8.993,15.312 -8.993,27.951l0,75.348c0,12.881 3.16,22.118 9.236,28.194c6.077,6.076 14.827,8.993 26.493,8.993c7.292,0 13.125,-0.972 17.257,-2.917c4.132,-2.187 7.535,-4.618 9.722,-7.534c2.188,-3.16 3.646,-6.32 4.375,-9.723c0.73,-3.645 1.459,-6.805 1.945,-9.722c0.243,-2.187 0.972,-3.646 2.187,-4.618c1.216,-1.215 3.16,-1.701 5.591,-1.701c2.673,-0 4.861,0.729 6.319,2.187c1.215,1.216 1.945,3.889 1.945,7.778c-0,7.292 -1.945,14.097 -6.077,20.417c-4.132,6.076 -9.965,11.18 -17.5,15.069c-7.535,3.646 -16.528,5.59 -27.222,5.59Z" style="fill:#fff;fill-rule:nonzero;"/></g><g><path d="M750.191,311.146c-2.187,0 -3.889,-0.729 -5.347,-1.944c-1.701,-1.216 -2.43,-2.674 -2.43,-4.375l-0,-102.813c-0,-1.701 0.729,-3.16 2.43,-4.375c1.458,-0.972 3.16,-1.458 5.347,-1.458c2.188,-0 4.132,0.486 5.834,1.701c1.458,0.972 2.187,2.431 2.187,4.132l0,102.813c0,1.701 -0.729,3.159 -2.187,4.375c-1.702,1.215 -3.646,1.944 -5.834,1.944Zm0,-148.993c-2.916,-0 -5.347,-0.972 -7.534,-3.16c-2.188,-1.944 -3.16,-4.375 -3.16,-7.048c-0,-2.674 0.972,-5.105 3.16,-7.049c2.187,-1.944 4.618,-2.917 7.534,-2.917c3.16,0 5.591,0.973 7.778,2.917c1.945,1.944 2.917,4.375 2.917,7.049c-0,2.673 -0.972,5.104 -3.16,7.048c-1.944,2.188 -4.375,3.16 -7.535,3.16Z" style="fill:#fff;fill-rule:nonzero;"/></g><g><path d="M822.136,311.146c-12.396,0 -22.118,-2.917 -28.681,-8.507c-6.562,-5.59 -9.965,-14.826 -9.965,-27.222l-0,-128.09c-0,-1.702 0.972,-3.16 2.674,-4.132c1.701,-1.216 3.402,-1.702 5.104,-1.702c2.187,0 3.889,0.486 5.59,1.702c1.701,0.972 2.431,2.43 2.431,4.132l-0,48.854l31.597,-0c1.701,-0 2.917,0.729 3.889,1.944c0.972,1.215 1.458,2.917 1.458,4.618c0,1.702 -0.486,3.403 -1.458,4.618c-0.972,1.216 -2.188,1.945 -3.889,1.945l-31.597,-0l-0,66.111c-0,8.021 1.701,13.368 5.104,16.528c3.403,3.159 9.236,4.861 17.743,4.861l6.805,-0c2.188,-0 4.132,0.729 5.348,1.944c1.215,1.459 1.701,3.16 1.701,5.104c0,1.945 -0.486,3.646 -1.701,5.105c-1.216,1.458 -3.16,2.187 -5.348,2.187l-6.805,0Z" style="fill:#fff;fill-rule:nonzero;"/></g><g><path d="M845.955,367.535c-2.187,0 -3.889,-0.486 -5.104,-1.701c-1.458,-0.973 -2.187,-2.674 -2.187,-5.348c-0,-1.944 0.486,-3.645 1.215,-5.104c0.729,-1.458 1.944,-2.187 3.646,-2.187c3.889,-0 7.534,-1.216 11.18,-3.646c3.646,-2.431 6.806,-5.833 9.966,-10.451c3.159,-4.375 5.833,-9.48 8.263,-15.07c2.431,-5.59 4.375,-11.424 5.834,-17.743l-39.618,-101.84c-0.486,-0.73 -0.729,-1.459 -0.729,-2.188c-0,-1.458 0.486,-2.673 1.701,-3.889c0.972,-1.215 2.187,-1.944 3.889,-2.673c1.458,-0.73 2.917,-0.973 4.132,-0.973c1.215,0 2.43,0.243 3.646,0.73c0.972,0.729 1.701,1.458 1.944,2.673l33.299,89.445l31.354,-89.445c0.486,-1.215 1.215,-1.944 2.187,-2.673c0.973,-0.487 1.945,-0.73 3.16,-0.73c1.215,0 2.674,0.243 4.375,0.973c1.458,0.729 2.674,1.458 3.889,2.673c0.972,1.216 1.458,2.431 1.458,4.132c0,0.729 -0.243,1.459 -0.486,1.945l-37.673,102.083c-2.431,6.563 -5.105,13.368 -7.778,20.417c-2.674,7.048 -6.077,13.854 -9.722,19.93c-3.646,6.077 -8.021,11.181 -13.125,14.827c-5.105,3.889 -11.424,5.833 -18.716,5.833Z" style="fill:#fff;fill-rule:nonzero;"/></g><g><path d="M272.222,520.938c-4.618,-0 -8.75,-1.701 -11.91,-5.104c-2.916,-3.16 -4.618,-7.049 -4.618,-11.424c0,-4.618 1.702,-8.507 4.862,-11.667c2.916,-3.159 7.048,-4.861 11.666,-4.861c4.375,0 8.264,1.702 11.424,4.861c3.16,3.16 4.861,7.049 4.861,11.667c-0,4.375 -1.701,8.264 -4.861,11.667c-3.16,3.16 -7.049,4.861 -11.424,4.861Z" style="fill:#fff;fill-rule:nonzero;"/></g><g><path d="M352.431,519.48c-4.132,-0 -7.778,-0.973 -10.938,-2.674c-3.16,-1.701 -4.861,-4.132 -4.861,-7.292l-0,-139.271l-35.729,0c-3.16,0 -5.591,-1.458 -7.292,-4.375c-1.701,-2.916 -2.674,-6.319 -2.674,-9.965c0,-3.403 0.73,-6.562 2.431,-9.479c1.701,-3.16 4.132,-4.618 7.535,-4.618l102.812,-0c3.646,-0 6.077,1.458 7.778,4.618c1.458,2.917 2.188,6.076 2.188,9.479c-0,3.646 -0.73,7.049 -2.431,9.965c-1.944,2.917 -4.375,4.375 -7.535,4.375l-35.486,0l0,139.271c0,3.16 -1.701,5.834 -4.861,7.535c-3.403,1.701 -7.049,2.431 -10.937,2.431Z" style="fill:#fff;fill-rule:nonzero;"/></g><g><path d="M439.931,519.48c-3.403,-0 -6.563,-0.973 -9.48,-2.674c-2.916,-1.701 -4.375,-4.132 -4.375,-7.292l0,-157.743c0,-3.16 1.459,-5.59 4.375,-7.292c2.917,-1.701 6.077,-2.673 9.48,-2.673l86.528,-0c3.645,-0 6.076,1.458 7.777,4.375c1.459,2.917 2.188,6.076 2.188,9.236c-0,3.889 -0.729,7.292 -2.431,9.965c-1.944,2.674 -4.375,4.132 -7.534,4.132l-68.785,0l-0,48.611l36.944,0c3.16,0 5.834,1.216 7.535,3.646c1.701,2.674 2.43,5.59 2.43,8.993c0,2.674 -0.729,5.347 -2.43,8.021c-1.458,2.674 -3.889,4.132 -7.535,4.132l-36.944,0l-0,48.854l68.785,0c3.159,0 5.833,1.459 7.534,4.132c1.702,2.674 2.431,6.077 2.431,9.965c-0,3.16 -0.729,6.32 -2.188,9.237c-1.701,2.916 -4.132,4.375 -7.777,4.375l-86.528,-0Z" style="fill:#fff;fill-rule:nonzero;"/></g><g><path d="M609.584,520.938c-9.966,-0 -19.445,-1.944 -27.952,-5.59c-8.507,-3.403 -15.312,-9.48 -20.417,-17.743c-5.104,-8.021 -7.534,-18.959 -7.534,-32.327l-0,-67.812c-0,-13.368 2.43,-24.306 7.534,-32.57c5.105,-8.021 11.91,-14.097 20.417,-17.743c8.507,-3.646 17.986,-5.347 28.195,-5.347c11.423,-0 21.389,1.944 30.139,5.59c8.507,3.889 15.312,9.236 20.173,16.042c5.104,6.805 7.535,15.069 7.535,24.548c-0,6.32 -1.215,10.452 -3.889,12.396c-2.674,2.188 -6.562,3.16 -11.91,3.16c-4.375,0 -8.021,-0.729 -10.937,-2.431c-3.16,-1.458 -4.618,-3.888 -4.861,-7.534c-0,-1.945 -0.243,-4.375 -0.973,-7.049c-0.486,-2.673 -1.458,-5.104 -3.159,-7.778c-1.702,-2.673 -4.132,-4.861 -7.292,-6.562c-3.403,-1.702 -8.021,-2.674 -13.854,-2.674c-8.264,0 -14.583,2.188 -18.958,6.806c-4.619,4.618 -6.806,11.666 -6.806,21.146l-0,67.812c-0,9.479 2.187,16.528 6.806,21.146c4.618,4.618 10.937,6.806 19.444,6.806c5.59,-0 9.965,-0.973 13.125,-2.674c3.16,-1.701 5.59,-4.132 7.292,-6.806c1.458,-2.673 2.43,-5.347 3.159,-8.263c0.486,-2.917 0.973,-5.591 1.216,-8.264c0.243,-3.646 1.944,-6.32 4.861,-7.778c2.916,-1.458 6.562,-2.188 10.694,-2.188c5.591,0 9.479,0.973 12.153,3.16c2.674,2.188 3.889,6.32 3.889,12.396c-0,9.722 -2.431,18.229 -7.535,25.521c-4.861,7.291 -11.666,12.882 -20.417,16.771c-8.75,3.889 -18.715,5.833 -30.138,5.833Z" style="fill:#fff;fill-rule:nonzero;"/></g><g><path d="M707.778,519.48c-3.889,-0 -7.535,-0.973 -10.937,-2.674c-3.16,-1.701 -4.862,-4.132 -4.862,-7.292l0,-157.986c0,-3.403 1.702,-5.833 5.105,-7.292c3.159,-1.701 6.805,-2.43 10.694,-2.43c4.132,-0 7.778,0.729 10.938,2.43c3.159,1.459 4.861,3.889 4.861,7.292l-0,63.438l54.687,-0l0,-63.438c0,-3.403 1.702,-5.833 5.104,-7.292c3.16,-1.701 6.806,-2.43 10.695,-2.43c4.132,-0 7.778,0.729 10.937,2.43c3.16,1.459 4.862,3.889 4.862,7.292l-0,157.986c-0,3.16 -1.702,5.834 -4.862,7.535c-3.159,1.701 -6.805,2.431 -10.937,2.431c-3.889,-0 -7.535,-0.73 -10.938,-2.431c-3.159,-1.701 -4.861,-4.375 -4.861,-7.535l0,-69.757l-54.687,0l-0,69.757c-0,3.16 -1.702,5.834 -4.861,7.535c-3.16,1.701 -6.806,2.431 -10.938,2.431Z" style="fill:#fff;fill-rule:nonzero;"/></g><path d="M25.833,657.5c-6.666,0 -12.637,-1.804 -17.916,-5.417c-5.28,-3.612 -7.917,-8.75 -7.917,-15.416l-0,-615.834c-0,-6.666 2.637,-11.804 7.917,-15.416c5.279,-3.613 11.25,-5.417 17.916,-5.417l134.167,0c6.113,0 10.971,2.5 14.583,7.5c3.613,5 5.417,10.554 5.417,16.667c0,7.221 -1.804,13.333 -5.417,18.333c-3.612,5 -8.47,7.5 -14.583,7.5l-105,0l0,557.5l105,0c6.113,0 10.971,2.363 14.583,7.083c3.613,4.721 5.417,10.696 5.417,17.917c0,6.667 -1.804,12.5 -5.417,17.5c-3.612,5 -8.47,7.5 -14.583,7.5l-134.167,0Z" style="fill:#fff;fill-rule:nonzero;"/><path d="M916.667,657.5c-6.113,0 -10.971,-2.5 -14.584,-7.5c-3.612,-5 -5.416,-10.833 -5.416,-17.5c-0,-7.221 1.804,-13.196 5.416,-17.917c3.613,-4.721 8.471,-7.083 14.584,-7.083l105,0l-0,-557.5l-105,0c-6.113,0 -10.971,-2.5 -14.584,-7.5c-3.612,-5 -5.416,-11.112 -5.416,-18.333c-0,-6.113 1.804,-11.667 5.416,-16.667c3.613,-5 8.471,-7.5 14.584,-7.5l134.166,0c7.221,0 13.334,1.804 18.334,5.417c5,3.612 7.5,8.75 7.5,15.416l-0,615.834c-0,6.666 -2.638,11.804 -7.917,15.416c-5.279,3.613 -11.25,5.417 -17.917,5.417l-134.166,0Z" style="fill:#fff;fill-rule:nonzero;"/></svg>