<?xml version="1.0" encoding="UTF-8" standalone="no"?><!DOCTYPE svg PUBLIC "-//W3C//DTD SVG 1.1//EN" "http://www.w3.org/Graphics/SVG/1.1/DTD/svg11.dtd"><svg width="100%" height="100%" viewBox="0 0 259 158" version="1.1" xmlns="http://www.w3.org/2000/svg" xmlns:xlink="http://www.w3.org/1999/xlink" xml:space="preserve" xmlns:serif="http://www.serif.com/" style="fill-rule:evenodd;clip-rule:evenodd;stroke-linejoin:round;stroke-miterlimit:2;"><g transform="matrix(4.16667,0,0,4.16667,29.4833,30.1667)"><g transform="matrix(14,0,0,14,0.449,10.682)"><path d="M0.276,0.006c-0.039,0 -0.074,-0.007 -0.105,-0.021c-0.031,-0.014 -0.056,-0.037 -0.075,-0.068c-0.018,-0.031 -0.027,-0.073 -0.027,-0.125l-0,-0.31c-0,-0.051 0.009,-0.093 0.027,-0.124c0.019,-0.031 0.043,-0.054 0.074,-0.068c0.031,-0.014 0.066,-0.021 0.105,-0.021c0.043,0 0.08,0.007 0.111,0.022c0.031,0.015 0.056,0.036 0.073,0.062c0.017,0.026 0.026,0.056 0.026,0.089c0,0.013 -0.003,0.021 -0.009,0.027c-0.006,0.005 -0.014,0.007 -0.024,0.007c-0.009,0 -0.016,-0.002 -0.023,-0.006c-0.006,-0.004 -0.009,-0.01 -0.01,-0.019c-0.003,-0.026 -0.011,-0.048 -0.022,-0.066c-0.011,-0.018 -0.027,-0.032 -0.047,-0.041c-0.02,-0.009 -0.045,-0.014 -0.074,-0.014c-0.045,0 -0.079,0.012 -0.104,0.037c-0.025,0.025 -0.037,0.063 -0.037,0.115l0,0.31c0,0.052 0.012,0.091 0.037,0.116c0.025,0.025 0.059,0.037 0.104,0.037c0.045,0 0.08,-0.012 0.105,-0.037c0.025,-0.025 0.038,-0.064 0.038,-0.116l0,-0.119l-0.134,0c-0.008,0 -0.014,-0.003 -0.018,-0.009c-0.005,-0.006 -0.007,-0.013 -0.007,-0.02c0,-0.007 0.002,-0.013 0.007,-0.019c0.004,-0.006 0.01,-0.009 0.018,-0.009l0.175,0c0.008,0 0.014,0.003 0.019,0.008c0.004,0.005 0.006,0.011 0.006,0.018l0,0.15c0,0.052 -0.009,0.094 -0.028,0.125c-0.019,0.031 -0.044,0.054 -0.075,0.068c-0.031,0.014 -0.067,0.021 -0.106,0.021Z" style="fill-rule:nonzero;"/></g><g transform="matrix(14,0,0,14,7.883,10.682)"><path d="M0.26,0.007c-0.042,0 -0.079,-0.008 -0.112,-0.024c-0.032,-0.016 -0.057,-0.038 -0.076,-0.067c-0.018,-0.028 -0.027,-0.061 -0.027,-0.099l-0,-0.112c-0,-0.033 0.009,-0.064 0.026,-0.092c0.017,-0.028 0.04,-0.05 0.069,-0.067c0.029,-0.017 0.061,-0.025 0.096,-0.025c0.033,0 0.064,0.008 0.092,0.024c0.029,0.015 0.052,0.037 0.069,0.064c0.017,0.027 0.026,0.059 0.026,0.094c-0,0.026 -0.004,0.045 -0.013,0.056c-0.009,0.011 -0.02,0.017 -0.033,0.02c-0.013,0.003 -0.026,0.004 -0.041,0.004l-0.226,0l-0,0.037c-0,0.04 0.014,0.072 0.043,0.095c0.029,0.023 0.065,0.035 0.109,0.035c0.027,0 0.047,-0.003 0.062,-0.01c0.015,-0.007 0.026,-0.013 0.034,-0.02c0.009,-0.007 0.017,-0.01 0.024,-0.01c0.005,0 0.01,0.002 0.014,0.006c0.005,0.003 0.008,0.007 0.01,0.012c0.003,0.005 0.004,0.009 0.004,0.013c-0,0.007 -0.006,0.016 -0.018,0.027c-0.012,0.011 -0.029,0.02 -0.052,0.028c-0.023,0.007 -0.049,0.011 -0.08,0.011Zm-0.15,-0.272l0.2,0c0.02,0 0.033,-0.002 0.04,-0.006c0.007,-0.005 0.01,-0.014 0.01,-0.028c-0,-0.021 -0.005,-0.042 -0.016,-0.061c-0.01,-0.019 -0.025,-0.035 -0.044,-0.047c-0.019,-0.012 -0.04,-0.018 -0.065,-0.018c-0.023,0 -0.044,0.006 -0.063,0.017c-0.019,0.011 -0.034,0.025 -0.045,0.044c-0.011,0.018 -0.017,0.038 -0.017,0.061l-0,0.038Z" style="fill-rule:nonzero;"/></g><g transform="matrix(14,0,0,14,14.113,10.682)"><path d="M0.094,-0c-0.009,-0 -0.016,-0.003 -0.022,-0.008c-0.007,-0.005 -0.01,-0.011 -0.01,-0.018l-0,-0.423c-0,-0.007 0.003,-0.013 0.01,-0.018c0.006,-0.004 0.013,-0.006 0.022,-0.006c0.009,0 0.016,0.002 0.022,0.007c0.006,0.004 0.009,0.01 0.009,0.017l0,0.046c0.011,-0.019 0.028,-0.037 0.051,-0.052c0.022,-0.016 0.049,-0.024 0.082,-0.024c0.033,0 0.062,0.009 0.087,0.028c0.025,0.019 0.043,0.043 0.055,0.072c0.017,-0.034 0.04,-0.059 0.068,-0.076c0.027,-0.016 0.055,-0.024 0.084,-0.024c0.029,0 0.056,0.007 0.082,0.022c0.025,0.015 0.046,0.036 0.062,0.064c0.016,0.027 0.024,0.061 0.024,0.101l0,0.266c0,0.007 -0.003,0.013 -0.009,0.018c-0.007,0.005 -0.015,0.008 -0.024,0.008c-0.009,0 -0.016,-0.003 -0.022,-0.008c-0.007,-0.005 -0.01,-0.011 -0.01,-0.018l0,-0.266c0,-0.028 -0.006,-0.051 -0.017,-0.07c-0.011,-0.019 -0.026,-0.033 -0.043,-0.042c-0.017,-0.01 -0.035,-0.015 -0.054,-0.015c-0.019,0 -0.038,0.005 -0.055,0.015c-0.018,0.01 -0.033,0.024 -0.044,0.043c-0.012,0.018 -0.018,0.04 -0.018,0.065l0,0.271c0,0.009 -0.003,0.015 -0.01,0.019c-0.007,0.004 -0.015,0.006 -0.023,0.006c-0.007,0 -0.014,-0.002 -0.021,-0.006c-0.007,-0.004 -0.011,-0.01 -0.011,-0.019l0,-0.27c0,-0.024 -0.005,-0.045 -0.015,-0.064c-0.011,-0.019 -0.025,-0.033 -0.042,-0.044c-0.017,-0.011 -0.036,-0.016 -0.057,-0.016c-0.019,0 -0.038,0.005 -0.056,0.015c-0.018,0.01 -0.033,0.024 -0.044,0.043c-0.012,0.019 -0.018,0.042 -0.018,0.069l0,0.266c0,0.007 -0.003,0.013 -0.009,0.018c-0.007,0.005 -0.015,0.008 -0.024,0.008Z" style="fill-rule:nonzero;"/></g><g transform="matrix(14,0,0,14,27.651,10.682)"><path d="M0.276,0.006c-0.037,0 -0.072,-0.007 -0.104,-0.021c-0.031,-0.014 -0.056,-0.037 -0.075,-0.068c-0.019,-0.031 -0.028,-0.073 -0.028,-0.125l-0,-0.31c-0,-0.051 0.009,-0.093 0.028,-0.124c0.019,-0.031 0.045,-0.054 0.077,-0.068c0.031,-0.014 0.066,-0.021 0.104,-0.021c0.044,0 0.081,0.008 0.112,0.023c0.031,0.015 0.054,0.036 0.071,0.061c0.016,0.025 0.024,0.053 0.024,0.083c0,0.016 -0.003,0.027 -0.009,0.032c-0.005,0.005 -0.013,0.008 -0.024,0.008c-0.012,0 -0.021,-0.002 -0.026,-0.007c-0.005,-0.006 -0.007,-0.011 -0.007,-0.018c-0.001,-0.011 -0.003,-0.023 -0.006,-0.037c-0.004,-0.014 -0.011,-0.027 -0.02,-0.04c-0.01,-0.013 -0.024,-0.023 -0.042,-0.031c-0.019,-0.009 -0.043,-0.013 -0.072,-0.013c-0.047,0 -0.082,0.012 -0.107,0.037c-0.025,0.025 -0.037,0.063 -0.037,0.115l0,0.31c0,0.053 0.013,0.091 0.038,0.116c0.025,0.025 0.061,0.037 0.109,0.037c0.03,0 0.054,-0.004 0.071,-0.012c0.017,-0.009 0.031,-0.019 0.04,-0.031c0.009,-0.013 0.015,-0.026 0.018,-0.04c0.003,-0.015 0.006,-0.028 0.008,-0.04c0.001,-0.009 0.004,-0.015 0.009,-0.019c0.005,-0.005 0.013,-0.007 0.023,-0.007c0.011,0 0.02,0.003 0.026,0.009c0.005,0.005 0.008,0.016 0.008,0.032c0,0.03 -0.008,0.058 -0.025,0.084c-0.017,0.025 -0.041,0.046 -0.072,0.062c-0.031,0.015 -0.068,0.023 -0.112,0.023Z" style="fill-rule:nonzero;"/></g><g transform="matrix(14,0,0,14,34.819,10.682)"><path d="M0.094,-0c-0.009,-0 -0.016,-0.003 -0.022,-0.008c-0.007,-0.005 -0.01,-0.011 -0.01,-0.018l-0,-0.423c-0,-0.007 0.003,-0.013 0.01,-0.018c0.006,-0.004 0.013,-0.006 0.022,-0.006c0.009,0 0.017,0.002 0.024,0.007c0.006,0.004 0.009,0.01 0.009,0.017l0,0.423c0,0.007 -0.003,0.013 -0.009,0.018c-0.007,0.005 -0.015,0.008 -0.024,0.008Zm0,-0.613c-0.012,0 -0.022,-0.004 -0.031,-0.013c-0.009,-0.008 -0.013,-0.018 -0.013,-0.029c0,-0.011 0.004,-0.021 0.013,-0.029c0.009,-0.008 0.019,-0.012 0.031,-0.012c0.013,0 0.023,0.004 0.032,0.012c0.008,0.008 0.012,0.018 0.012,0.029c0,0.011 -0.004,0.021 -0.013,0.029c-0.008,0.009 -0.018,0.013 -0.031,0.013Z" style="fill-rule:nonzero;"/></g><g transform="matrix(14,0,0,14,37.213,10.682)"><path d="M0.219,-0c-0.051,-0 -0.091,-0.012 -0.118,-0.035c-0.027,-0.023 -0.041,-0.061 -0.041,-0.112l0,-0.527c0,-0.007 0.004,-0.013 0.011,-0.017c0.007,-0.005 0.014,-0.007 0.021,-0.007c0.009,0 0.016,0.002 0.023,0.007c0.007,0.004 0.01,0.01 0.01,0.017l0,0.201l0.13,0c0.007,0 0.012,0.003 0.016,0.008c0.004,0.005 0.006,0.012 0.006,0.019c0,0.007 -0.002,0.014 -0.006,0.019c-0.004,0.005 -0.009,0.008 -0.016,0.008l-0.13,0l0,0.272c0,0.033 0.007,0.055 0.021,0.068c0.014,0.013 0.038,0.02 0.073,0.02l0.028,-0c0.009,-0 0.017,0.003 0.022,0.008c0.005,0.006 0.007,0.013 0.007,0.021c0,0.008 -0.002,0.015 -0.007,0.021c-0.005,0.006 -0.013,0.009 -0.022,0.009l-0.028,-0Z" style="fill-rule:nonzero;"/></g><g transform="matrix(14,0,0,14,41.021,10.682)"><path d="M0.045,0.232c-0.009,0 -0.016,-0.002 -0.021,-0.007c-0.006,-0.004 -0.009,-0.011 -0.009,-0.022c0,-0.008 0.002,-0.015 0.005,-0.021c0.003,-0.006 0.008,-0.009 0.015,-0.009c0.016,0 0.031,-0.005 0.046,-0.015c0.015,-0.01 0.028,-0.024 0.041,-0.043c0.013,-0.018 0.024,-0.039 0.034,-0.062c0.01,-0.023 0.018,-0.047 0.024,-0.073l-0.163,-0.419c-0.002,-0.003 -0.003,-0.006 -0.003,-0.009c0,-0.006 0.002,-0.011 0.007,-0.016c0.004,-0.005 0.009,-0.008 0.016,-0.011c0.006,-0.003 0.012,-0.004 0.017,-0.004c0.005,-0 0.01,0.001 0.015,0.003c0.004,0.003 0.007,0.006 0.008,0.011l0.137,0.368l0.129,-0.368c0.002,-0.005 0.005,-0.008 0.009,-0.011c0.004,-0.002 0.008,-0.003 0.013,-0.003c0.005,-0 0.011,0.001 0.018,0.004c0.006,0.003 0.011,0.006 0.016,0.011c0.004,0.005 0.006,0.01 0.006,0.017c0,0.003 -0.001,0.006 -0.002,0.008l-0.155,0.42c-0.01,0.027 -0.021,0.055 -0.032,0.084c-0.011,0.029 -0.025,0.057 -0.04,0.082c-0.015,0.025 -0.033,0.046 -0.054,0.061c-0.021,0.016 -0.047,0.024 -0.077,0.024Z" style="fill-rule:nonzero;"/></g><g transform="matrix(14,0,0,14,7.26,22.682)"><path d="M0.096,0.006c-0.019,0 -0.036,-0.007 -0.049,-0.021c-0.012,-0.013 -0.019,-0.029 -0.019,-0.047c0,-0.019 0.007,-0.035 0.02,-0.048c0.012,-0.013 0.029,-0.02 0.048,-0.02c0.018,0 0.034,0.007 0.047,0.02c0.013,0.013 0.02,0.029 0.02,0.048c0,0.018 -0.007,0.034 -0.02,0.048c-0.013,0.013 -0.029,0.02 -0.047,0.02Z" style="fill-rule:nonzero;"/></g><g transform="matrix(14,0,0,14,9.556,22.682)"><path d="M0.262,-0c-0.017,-0 -0.032,-0.004 -0.045,-0.011c-0.013,-0.007 -0.02,-0.017 -0.02,-0.03l-0,-0.573l-0.147,0c-0.013,0 -0.023,-0.006 -0.03,-0.018c-0.007,-0.012 -0.011,-0.026 -0.011,-0.041c-0,-0.014 0.003,-0.027 0.01,-0.039c0.007,-0.013 0.017,-0.019 0.031,-0.019l0.423,0c0.015,0 0.025,0.006 0.032,0.019c0.006,0.012 0.009,0.025 0.009,0.039c0,0.015 -0.003,0.029 -0.01,0.041c-0.008,0.012 -0.018,0.018 -0.031,0.018l-0.146,0l0,0.573c0,0.013 -0.007,0.024 -0.02,0.031c-0.014,0.007 -0.029,0.01 -0.045,0.01Z" style="fill-rule:nonzero;"/></g><g transform="matrix(14,0,0,14,16.626,22.682)"><path d="M0.117,-0c-0.014,-0 -0.027,-0.004 -0.039,-0.011c-0.012,-0.007 -0.018,-0.017 -0.018,-0.03l-0,-0.649c-0,-0.013 0.006,-0.023 0.018,-0.03c0.012,-0.007 0.025,-0.011 0.039,-0.011l0.356,0c0.015,0 0.025,0.006 0.032,0.018c0.006,0.012 0.009,0.025 0.009,0.038c0,0.016 -0.003,0.03 -0.01,0.041c-0.008,0.011 -0.018,0.017 -0.031,0.017l-0.283,0l0,0.2l0.152,0c0.013,0 0.024,0.005 0.031,0.015c0.007,0.011 0.01,0.023 0.01,0.037c0,0.011 -0.003,0.022 -0.01,0.033c-0.006,0.011 -0.016,0.017 -0.031,0.017l-0.152,-0l0,0.201l0.283,-0c0.013,-0 0.024,0.006 0.031,0.017c0.007,0.011 0.01,0.025 0.01,0.041c0,0.013 -0.003,0.026 -0.009,0.038c-0.007,0.012 -0.017,0.018 -0.032,0.018l-0.356,-0Z" style="fill-rule:nonzero;"/></g><g transform="matrix(14,0,0,14,24.074,22.682)"><path d="M0.283,0.006c-0.041,0 -0.08,-0.008 -0.115,-0.023c-0.035,-0.014 -0.063,-0.039 -0.084,-0.073c-0.021,-0.033 -0.031,-0.078 -0.031,-0.133l-0,-0.279c-0,-0.055 0.01,-0.1 0.031,-0.134c0.021,-0.033 0.049,-0.058 0.084,-0.073c0.035,-0.015 0.074,-0.022 0.116,-0.022c0.047,0 0.088,0.008 0.124,0.023c0.035,0.016 0.063,0.038 0.083,0.066c0.021,0.028 0.031,0.062 0.031,0.101c0,0.026 -0.005,0.043 -0.016,0.051c-0.011,0.009 -0.027,0.013 -0.049,0.013c-0.018,-0 -0.033,-0.003 -0.045,-0.01c-0.013,-0.006 -0.019,-0.016 -0.02,-0.031c0,-0.008 -0.001,-0.018 -0.004,-0.029c-0.002,-0.011 -0.006,-0.021 -0.013,-0.032c-0.007,-0.011 -0.017,-0.02 -0.03,-0.027c-0.014,-0.007 -0.033,-0.011 -0.057,-0.011c-0.034,0 -0.06,0.009 -0.078,0.028c-0.019,0.019 -0.028,0.048 -0.028,0.087l0,0.279c0,0.039 0.009,0.068 0.028,0.087c0.019,0.019 0.045,0.028 0.08,0.028c0.023,-0 0.041,-0.004 0.054,-0.011c0.013,-0.007 0.023,-0.017 0.03,-0.028c0.006,-0.011 0.01,-0.022 0.013,-0.034c0.002,-0.012 0.004,-0.023 0.005,-0.034c0.001,-0.015 0.008,-0.026 0.02,-0.032c0.012,-0.006 0.027,-0.009 0.044,-0.009c0.023,-0 0.039,0.004 0.05,0.013c0.011,0.009 0.016,0.026 0.016,0.051c0,0.04 -0.01,0.075 -0.031,0.105c-0.02,0.03 -0.048,0.053 -0.084,0.069c-0.036,0.016 -0.077,0.024 -0.124,0.024Z" style="fill-rule:nonzero;"/></g><g transform="matrix(14,0,0,14,31.942,22.682)"><path d="M0.125,-0c-0.016,-0 -0.031,-0.004 -0.045,-0.011c-0.013,-0.007 -0.02,-0.017 -0.02,-0.03l0,-0.65c0,-0.014 0.007,-0.024 0.021,-0.03c0.013,-0.007 0.028,-0.01 0.044,-0.01c0.017,0 0.032,0.003 0.045,0.01c0.013,0.006 0.02,0.016 0.02,0.03l0,0.261l0.225,0l0,-0.261c0,-0.014 0.007,-0.024 0.021,-0.03c0.013,-0.007 0.028,-0.01 0.044,-0.01c0.017,0 0.032,0.003 0.045,0.01c0.013,0.006 0.02,0.016 0.02,0.03l0,0.65c0,0.013 -0.007,0.024 -0.02,0.031c-0.013,0.007 -0.028,0.01 -0.045,0.01c-0.016,0 -0.031,-0.003 -0.045,-0.01c-0.013,-0.007 -0.02,-0.018 -0.02,-0.031l0,-0.287l-0.225,0l-0,0.287c0,0.013 -0.007,0.024 -0.02,0.031c-0.013,0.007 -0.028,0.01 -0.045,0.01Z" style="fill-rule:nonzero;"/></g></g><path d="M6.2,157.8c-1.6,0 -3.033,-0.433 -4.3,-1.3c-1.267,-0.867 -1.9,-2.1 -1.9,-3.7l-0,-147.8c-0,-1.6 0.633,-2.833 1.9,-3.7c1.267,-0.867 2.7,-1.3 4.3,-1.3l32.2,0c1.467,0 2.633,0.6 3.5,1.8c0.867,1.2 1.3,2.533 1.3,4c-0,1.733 -0.433,3.2 -1.3,4.4c-0.867,1.2 -2.033,1.8 -3.5,1.8l-25.2,0l-0,133.8l25.2,0c1.467,0 2.633,0.567 3.5,1.7c0.867,1.133 1.3,2.567 1.3,4.3c-0,1.6 -0.433,3 -1.3,4.2c-0.867,1.2 -2.033,1.8 -3.5,1.8l-32.2,0Z" style="fill-rule:nonzero;"/><path d="M220,157.8c-1.467,0 -2.633,-0.6 -3.5,-1.8c-0.867,-1.2 -1.3,-2.6 -1.3,-4.2c0,-1.733 0.433,-3.167 1.3,-4.3c0.867,-1.133 2.033,-1.7 3.5,-1.7l25.2,0l0,-133.8l-25.2,0c-1.467,0 -2.633,-0.6 -3.5,-1.8c-0.867,-1.2 -1.3,-2.667 -1.3,-4.4c0,-1.467 0.433,-2.8 1.3,-4c0.867,-1.2 2.033,-1.8 3.5,-1.8l32.2,0c1.733,0 3.2,0.433 4.4,1.3c1.2,0.867 1.8,2.1 1.8,3.7l0,147.8c0,1.6 -0.633,2.833 -1.9,3.7c-1.267,0.867 -2.7,1.3 -4.3,1.3l-32.2,0Z" style="fill-rule:nonzero;"/></svg>